<svg xmlns="http://www.w3.org/2000/svg" width="24" height="24" viewBox="0 0 24 24"><path fill="#aaa" d="M18.71 19.5c-.83 1.24-1.71 2.45-3.05 2.47-1.34.03-1.77-.79-3.29-.79-1.53 0-2 .77-3.27.82-1.31.05-2.3-1.32-3.14-2.53C4.25 17 2.94 12.45 4.7 9.39a4.88 4.88 0 014.12-2.51c1.28-.02 2.5.87 3.29.87.78 0 2.26-1.07 3.81-.91.65.03 2.47.26 3.64 1.98-.09.06-2.17 1.28-2.15 3.81a4.41 4.41 0 002.68 4.04c-.03.07-.42 1.44-1.38 2.83M13 3.5A4.55 4.55 0 0115.94 2a4.38 4.38 0 01-1.04 3.19c-.69.85-1.83 1.51-2.95 1.42A4.27 4.27 0 0113 3.5z"/></svg>