<svg xmlns="http://www.w3.org/2000/svg" width="24" height="24" viewBox="0 0 24 24"><defs><linearGradient id="a" x1="91.5%" x2="-38.34%" y1="4.97%" y2="71.91%"><stop offset="0%" stop-color="#00A0FF"/><stop offset=".66%" stop-color="#00A1FF"/><stop offset="26.01%" stop-color="#00BEFF"/><stop offset="51.22%" stop-color="#00D2FF"/><stop offset="76.04%" stop-color="#00DFFF"/><stop offset="100%" stop-color="#00E3FF"/></linearGradient><linearGradient id="b" x1="107.59%" x2="-130.47%" y1="50%" y2="50%"><stop offset="0%" stop-color="#FFE000"/><stop offset="40.87%" stop-color="#FFBD00"/><stop offset="77.54%" stop-color="orange"/><stop offset="100%" stop-color="#FF9C00"/></linearGradient><linearGradient id="c" x1="86.24%" x2="-50.14%" y1="17.85%" y2="194.81%"><stop offset="0%" stop-color="#FF3A44"/><stop offset="100%" stop-color="#C31162"/></linearGradient><linearGradient id="d" x1="-18.81%" x2="42.09%" y1="-54.15%" y2="24.87%"><stop offset="0%" stop-color="#32A071"/><stop offset="6.85%" stop-color="#2DA771"/><stop offset="47.62%" stop-color="#15CF74"/><stop offset="80.09%" stop-color="#06E775"/><stop offset="100%" stop-color="#00F076"/></linearGradient></defs><g fill="none"><path fill="url(#a)" d="M.36.42C.13.65 0 1.02 0 1.49v16.9c0 .47.13.83.36 1.07l.06.05 9.62-9.46v-.22L.42.36.36.42z" transform="translate(3 2)"/><path fill="url(#b)" d="M13.24 13.2l-3.2-3.15v-.22l3.2-3.16.08.04 3.8 2.12c1.08.61 1.08 1.6 0 2.21l-3.8 2.12-.08.04z" transform="translate(3 2)"/><path fill="url(#c)" d="M13.32 13.16l-3.28-3.22-9.68 9.52c.36.37.95.42 1.61.05l11.35-6.35" transform="translate(3 2)"/><path fill="url(#d)" d="M13.32 6.71L1.97.37C1.31 0 .72.04.36.42l9.68 9.52 3.28-3.23z" transform="translate(3 2)"/><g fill="#000"><path d="M16.24 15.1L4.97 21.4c-.63.35-1.19.32-1.55 0l-.06.06.06.05c.36.32.92.35 1.55 0l11.35-6.35-.07-.07z" opacity=".2"/><path d="M3.36 21.35c-.23-.24-.36-.6-.36-1.08v.12c0 .47.13.83.36 1.07l.06-.06-.06-.05z" opacity=".12"/></g><path fill="#000" d="M20.12 12.93l-3.88 2.16.08.07 3.8-2.12c.54-.3.81-.7.81-1.1-.04.36-.32.71-.81.99z" opacity=".12"/><path fill="#FFF" d="M4.97 2.48l15.15 8.47c.49.27.77.62.81.99 0-.4-.27-.8-.81-1.1L4.97 2.36C3.9 1.77 3 2.27 3 3.49v.11c0-1.22.89-1.73 1.97-1.12z" opacity=".25"/></g></svg>